<?xml version="1.0" encoding="UTF-8"?>
<svg width="512" height="512" viewBox="0 0 512 512" fill="none" xmlns="http://www.w3.org/2000/svg">
    <rect width="512" height="512" rx="80" fill="url(#gradient)"/>
    <path d="M256 128C228.8 128 206 150.8 206 178V236H148C135.2 236 124 247.2 124 260S135.2 284 148 284H206V342C206 369.2 228.8 392 256 392S306 369.2 306 342V284H364C376.8 284 388 272.8 388 260S376.8 236 364 236H306V178C306 150.8 283.2 128 256 128Z" fill="white"/>
    <circle cx="180" cy="180" r="16" fill="white" opacity="0.7"/>
    <circle cx="332" cy="332" r="12" fill="white" opacity="0.5"/>
    <circle cx="160" cy="340" r="8" fill="white" opacity="0.3"/>
    <circle cx="360" cy="160" r="10" fill="white" opacity="0.4"/>
    <defs>
        <linearGradient id="gradient" x1="0" y1="0" x2="512" y2="512" gradientUnits="userSpaceOnUse">
            <stop offset="0%" stop-color="#4facfe"/>
            <stop offset="50%" stop-color="#00f2fe"/>
            <stop offset="100%" stop-color="#667eea"/>
        </linearGradient>
    </defs>
</svg>
